# xmcd
#
# Track frame offsets:
#        150
#        22057
#        40700
#        63390
#        86562
#        109310
#        115747
#        139747
#        160405
#        181440
#        205252
#
# Disc length: 3028 seconds
#
# Revision: 0
# Processed by: cddbd v1.5PL3 Copyright (c) Steve Scherf et al.
# Submitted via: ExactAudioCopy v0.95a4
#
DISCID=980bd20b
DTITLE=TIAMAT - Skeleton Skeletron
DYEAR=1999
DGENRE=Rock
TTITLE0=Church Of Tiamat
TTITLE1=Brighter Than The Sun
TTITLE2=Dust Is Our Fare
TTITLE3=To Have And Have Not
TTITLE4=For Her Pleasure
TTITLE5=Diyala
TTITLE6=Sympathy For The Devil (Rolling Stones Cover)
TTITLE7=Best Friend Money Can Buy
TTITLE8=As Long As You Are Mine
TTITLE9=Lucy
TTITLE10=Children of the Underworld (Japan Edlund)
EXTD=
EXTT0=
EXTT1=
EXTT2=
EXTT3=
EXTT4=
EXTT5=
EXTT6=
EXTT7=
EXTT8=
EXTT9=
EXTT10=
PLAYORDER=
